<?xml version="1.0" encoding="UTF-8" standalone="no"?>
<?xml-stylesheet href="styles.css" type="text/css"?>
<!DOCTYPE svg PUBLIC "-//W3C//DTD SVG 1.1//EN"
 "http://www.w3.org/Graphics/SVG/1.1/DTD/svg11.dtd">
<!-- Generated by graphviz version 2.38.0 (20140413.2041)
 -->
<!-- Title: AsyncFIFO Pages: 1 -->
<svg width="499pt" height="1077pt"
 viewBox="0.00 0.00 499.00 1077.00" xmlns="http://www.w3.org/2000/svg" xmlns:xlink="http://www.w3.org/1999/xlink">
<g id="graph0" class="graph" transform="scale(1 1) rotate(0) translate(4 1073)">
<title>AsyncFIFO</title>
<polygon fill="white" stroke="none" points="-4,4 -4,-1073 495,-1073 495,4 -4,4"/>
<g id="clust1" class="cluster"><title>cluster_AsyncFIFO</title>
<polygon fill="#fff8dc" stroke="black" points="8,-8 8,-1061 483,-1061 483,-8 8,-8"/>
<text text-anchor="middle" x="245.5" y="-1045.8" font-family="Times,serif" font-size="14.00">AsyncFIFO</text>
</g>
<g id="clust2" class="cluster"><title>cluster_AsyncFIFO_WCtrl</title>
<g id="a_clust2"><a xlink:href="WCtrl.dot.svg" xlink:title="WCtrl">
<polygon fill="#add8e6" stroke="black" points="103,-523 103,-1030 256,-1030 256,-523 103,-523"/>
<text text-anchor="middle" x="179.5" y="-1014.8" font-family="Times,serif" font-size="14.00">WCtrl</text>
</a>
</g>
</g>
<g id="clust3" class="cluster"><title>cluster_AsyncFIFO_RCtrl</title>
<g id="a_clust3"><a xlink:href="RCtrl.dot.svg" xlink:title="RCtrl">
<polygon fill="#add8e6" stroke="black" points="108,-16 108,-469 251,-469 251,-16 108,-16"/>
<text text-anchor="middle" x="179.5" y="-453.8" font-family="Times,serif" font-size="14.00">RCtrl</text>
</a>
</g>
</g>
<g id="clust4" class="cluster"><title>cluster_AsyncFIFO_mem</title>
<g id="a_clust4"><a xlink:href="S2P.dot.svg" xlink:title="mem">
<polygon fill="#add8e6" stroke="black" points="276,-334 276,-733 393,-733 393,-334 276,-334"/>
<text text-anchor="middle" x="334.5" y="-717.8" font-family="Times,serif" font-size="14.00">mem</text>
</a>
</g>
</g>
<!-- cluster_AsyncFIFO_wclk -->
<g id="node1" class="node"><title>cluster_AsyncFIFO_wclk</title>
<polygon fill="#cccccc" stroke="black" points="72.5,-999 18.5,-999 18.5,-963 72.5,-963 72.5,-999"/>
<text text-anchor="middle" x="45.5" y="-977.3" font-family="Times,serif" font-size="14.00">wclk</text>
</g>
<!-- cluster_AsyncFIFO_WCtrl_clock -->
<g id="node11" class="node"><title>cluster_AsyncFIFO_WCtrl_clock</title>
<polygon fill="#cccccc" stroke="black" points="206.5,-999 152.5,-999 152.5,-963 206.5,-963 206.5,-999"/>
<text text-anchor="middle" x="179.5" y="-977.3" font-family="Times,serif" font-size="14.00">clock</text>
</g>
<!-- cluster_AsyncFIFO_wclk&#45;&gt;cluster_AsyncFIFO_WCtrl_clock -->
<g id="edge1" class="edge"><title>cluster_AsyncFIFO_wclk&#45;&gt;cluster_AsyncFIFO_WCtrl_clock</title>
<path fill="none" stroke="black" d="M72.579,-981C92.5565,-981 120.351,-981 142.455,-981"/>
<polygon fill="black" stroke="black" points="142.475,-984.5 152.475,-981 142.475,-977.5 142.475,-984.5"/>
</g>
<!-- cluster_AsyncFIFO_wrst -->
<g id="node2" class="node"><title>cluster_AsyncFIFO_wrst</title>
<polygon fill="#cccccc" stroke="black" points="72.5,-945 18.5,-945 18.5,-909 72.5,-909 72.5,-945"/>
<text text-anchor="middle" x="45.5" y="-923.3" font-family="Times,serif" font-size="14.00">wrst</text>
</g>
<!-- cluster_AsyncFIFO_WCtrl_reset -->
<g id="node12" class="node"><title>cluster_AsyncFIFO_WCtrl_reset</title>
<polygon fill="#cccccc" stroke="black" points="206.5,-945 152.5,-945 152.5,-909 206.5,-909 206.5,-945"/>
<text text-anchor="middle" x="179.5" y="-923.3" font-family="Times,serif" font-size="14.00">reset</text>
</g>
<!-- cluster_AsyncFIFO_wrst&#45;&gt;cluster_AsyncFIFO_WCtrl_reset -->
<g id="edge8" class="edge"><title>cluster_AsyncFIFO_wrst&#45;&gt;cluster_AsyncFIFO_WCtrl_reset</title>
<path fill="none" stroke="black" d="M72.579,-927C92.5565,-927 120.351,-927 142.455,-927"/>
<polygon fill="black" stroke="black" points="142.475,-930.5 152.475,-927 142.475,-923.5 142.475,-930.5"/>
</g>
<!-- cluster_AsyncFIFO_rclk -->
<g id="node3" class="node"><title>cluster_AsyncFIFO_rclk</title>
<polygon fill="#cccccc" stroke="black" points="72.5,-438 18.5,-438 18.5,-402 72.5,-402 72.5,-438"/>
<text text-anchor="middle" x="45.5" y="-416.3" font-family="Times,serif" font-size="14.00">rclk</text>
</g>
<!-- cluster_AsyncFIFO_RCtrl_clock -->
<g id="node20" class="node"><title>cluster_AsyncFIFO_RCtrl_clock</title>
<polygon fill="#cccccc" stroke="black" points="206.5,-438 152.5,-438 152.5,-402 206.5,-402 206.5,-438"/>
<text text-anchor="middle" x="179.5" y="-416.3" font-family="Times,serif" font-size="14.00">clock</text>
</g>
<!-- cluster_AsyncFIFO_rclk&#45;&gt;cluster_AsyncFIFO_RCtrl_clock -->
<g id="edge3" class="edge"><title>cluster_AsyncFIFO_rclk&#45;&gt;cluster_AsyncFIFO_RCtrl_clock</title>
<path fill="none" stroke="black" d="M72.579,-420C92.5565,-420 120.351,-420 142.455,-420"/>
<polygon fill="black" stroke="black" points="142.475,-423.5 152.475,-420 142.475,-416.5 142.475,-423.5"/>
</g>
<!-- cluster_AsyncFIFO_rrst -->
<g id="node4" class="node"><title>cluster_AsyncFIFO_rrst</title>
<polygon fill="#cccccc" stroke="black" points="72.5,-384 18.5,-384 18.5,-348 72.5,-348 72.5,-384"/>
<text text-anchor="middle" x="45.5" y="-362.3" font-family="Times,serif" font-size="14.00">rrst</text>
</g>
<!-- cluster_AsyncFIFO_RCtrl_reset -->
<g id="node21" class="node"><title>cluster_AsyncFIFO_RCtrl_reset</title>
<polygon fill="#cccccc" stroke="black" points="206.5,-384 152.5,-384 152.5,-348 206.5,-348 206.5,-384"/>
<text text-anchor="middle" x="179.5" y="-362.3" font-family="Times,serif" font-size="14.00">reset</text>
</g>
<!-- cluster_AsyncFIFO_rrst&#45;&gt;cluster_AsyncFIFO_RCtrl_reset -->
<g id="edge10" class="edge"><title>cluster_AsyncFIFO_rrst&#45;&gt;cluster_AsyncFIFO_RCtrl_reset</title>
<path fill="none" stroke="black" d="M72.579,-366C92.5565,-366 120.351,-366 142.455,-366"/>
<polygon fill="black" stroke="black" points="142.475,-369.5 152.475,-366 142.475,-362.5 142.475,-369.5"/>
</g>
<!-- cluster_AsyncFIFO_w_winc -->
<g id="node5" class="node"><title>cluster_AsyncFIFO_w_winc</title>
<polygon fill="#cccccc" stroke="black" points="75,-891 16,-891 16,-855 75,-855 75,-891"/>
<text text-anchor="middle" x="45.5" y="-869.3" font-family="Times,serif" font-size="14.00">w_winc</text>
</g>
<!-- cluster_AsyncFIFO_WCtrl_io_winc -->
<g id="node14" class="node"><title>cluster_AsyncFIFO_WCtrl_io_winc</title>
<polygon fill="#cccccc" stroke="black" points="209.5,-891 149.5,-891 149.5,-855 209.5,-855 209.5,-891"/>
<text text-anchor="middle" x="179.5" y="-869.3" font-family="Times,serif" font-size="14.00">io_winc</text>
</g>
<!-- cluster_AsyncFIFO_w_winc&#45;&gt;cluster_AsyncFIFO_WCtrl_io_winc -->
<g id="edge2" class="edge"><title>cluster_AsyncFIFO_w_winc&#45;&gt;cluster_AsyncFIFO_WCtrl_io_winc</title>
<path fill="none" stroke="black" d="M75.142,-873C93.9531,-873 118.801,-873 139.419,-873"/>
<polygon fill="black" stroke="black" points="139.458,-876.5 149.458,-873 139.458,-869.5 139.458,-876.5"/>
</g>
<!-- cluster_AsyncFIFO_w_wbits -->
<g id="node6" class="node"><title>cluster_AsyncFIFO_w_wbits</title>
<polygon fill="#cccccc" stroke="black" points="210.5,-513 148.5,-513 148.5,-477 210.5,-477 210.5,-513"/>
<text text-anchor="middle" x="179.5" y="-491.3" font-family="Times,serif" font-size="14.00">w_wbits</text>
</g>
<!-- cluster_AsyncFIFO_mem_w_wbits -->
<g id="node31" class="node"><title>cluster_AsyncFIFO_mem_w_wbits</title>
<polygon fill="#cccccc" stroke="black" points="365.5,-540 303.5,-540 303.5,-504 365.5,-504 365.5,-540"/>
<text text-anchor="middle" x="334.5" y="-518.3" font-family="Times,serif" font-size="14.00">w_wbits</text>
</g>
<!-- cluster_AsyncFIFO_w_wbits&#45;&gt;cluster_AsyncFIFO_mem_w_wbits -->
<g id="edge16" class="edge"><title>cluster_AsyncFIFO_w_wbits&#45;&gt;cluster_AsyncFIFO_mem_w_wbits</title>
<path fill="none" stroke="black" d="M210.728,-500.334C234.408,-504.513 267.562,-510.364 293.449,-514.932"/>
<polygon fill="black" stroke="black" points="292.879,-518.386 303.335,-516.677 294.095,-511.492 292.879,-518.386"/>
</g>
<!-- cluster_AsyncFIFO_r_rinc -->
<g id="node7" class="node"><title>cluster_AsyncFIFO_r_rinc</title>
<polygon fill="#cccccc" stroke="black" points="72.5,-276 18.5,-276 18.5,-240 72.5,-240 72.5,-276"/>
<text text-anchor="middle" x="45.5" y="-254.3" font-family="Times,serif" font-size="14.00">r_rinc</text>
</g>
<!-- cluster_AsyncFIFO_RCtrl_io_rinc -->
<g id="node23" class="node"><title>cluster_AsyncFIFO_RCtrl_io_rinc</title>
<polygon fill="#cccccc" stroke="black" points="207,-276 152,-276 152,-240 207,-240 207,-276"/>
<text text-anchor="middle" x="179.5" y="-254.3" font-family="Times,serif" font-size="14.00">io_rinc</text>
</g>
<!-- cluster_AsyncFIFO_r_rinc&#45;&gt;cluster_AsyncFIFO_RCtrl_io_rinc -->
<g id="edge5" class="edge"><title>cluster_AsyncFIFO_r_rinc&#45;&gt;cluster_AsyncFIFO_RCtrl_io_rinc</title>
<path fill="none" stroke="black" d="M72.579,-258C92.2078,-258 119.383,-258 141.292,-258"/>
<polygon fill="black" stroke="black" points="141.569,-261.5 151.569,-258 141.569,-254.5 141.569,-261.5"/>
</g>
<!-- cluster_AsyncFIFO_w_wfull -->
<g id="node8" class="node"><title>cluster_AsyncFIFO_w_wfull</title>
<polygon fill="#e0ffff" stroke="black" points="365.5,-837 303.5,-837 303.5,-801 365.5,-801 365.5,-837"/>
<text text-anchor="middle" x="334.5" y="-815.3" font-family="Times,serif" font-size="14.00">w_wfull</text>
</g>
<!-- cluster_AsyncFIFO_r_rempty -->
<g id="node9" class="node"><title>cluster_AsyncFIFO_r_rempty</title>
<polygon fill="#e0ffff" stroke="black" points="368,-60 301,-60 301,-24 368,-24 368,-60"/>
<text text-anchor="middle" x="334.5" y="-38.3" font-family="Times,serif" font-size="14.00">r_rempty</text>
</g>
<!-- cluster_AsyncFIFO_r_rbits -->
<g id="node10" class="node"><title>cluster_AsyncFIFO_r_rbits</title>
<polygon fill="#e0ffff" stroke="black" points="475,-378 421,-378 421,-342 475,-342 475,-378"/>
<text text-anchor="middle" x="448" y="-356.3" font-family="Times,serif" font-size="14.00">r_rbits</text>
</g>
<!-- cluster_AsyncFIFO_WCtrl_io_ptrs_rptr -->
<g id="node13" class="node"><title>cluster_AsyncFIFO_WCtrl_io_ptrs_rptr</title>
<polygon fill="#cccccc" stroke="black" points="219.5,-567 139.5,-567 139.5,-531 219.5,-531 219.5,-567"/>
<text text-anchor="middle" x="179.5" y="-545.3" font-family="Times,serif" font-size="14.00">io_ptrs_rptr</text>
</g>
<!-- cluster_AsyncFIFO_WCtrl_io_ptrs_wptr -->
<g id="node15" class="node"><title>cluster_AsyncFIFO_WCtrl_io_ptrs_wptr</title>
<polygon fill="#e0ffff" stroke="black" points="222.5,-783 136.5,-783 136.5,-747 222.5,-747 222.5,-783"/>
<text text-anchor="middle" x="179.5" y="-761.3" font-family="Times,serif" font-size="14.00">io_ptrs_wptr</text>
</g>
<!-- cluster_AsyncFIFO_RCtrl_io_ptrs_wptr -->
<g id="node22" class="node"><title>cluster_AsyncFIFO_RCtrl_io_ptrs_wptr</title>
<polygon fill="#cccccc" stroke="black" points="222.5,-330 136.5,-330 136.5,-294 222.5,-294 222.5,-330"/>
<text text-anchor="middle" x="179.5" y="-308.3" font-family="Times,serif" font-size="14.00">io_ptrs_wptr</text>
</g>
<!-- cluster_AsyncFIFO_WCtrl_io_ptrs_wptr&#45;&gt;cluster_AsyncFIFO_RCtrl_io_ptrs_wptr -->
<g id="edge12" class="edge"><title>cluster_AsyncFIFO_WCtrl_io_ptrs_wptr&#45;&gt;cluster_AsyncFIFO_RCtrl_io_ptrs_wptr</title>
<path fill="none" stroke="black" d="M136.338,-759.923C117.862,-755.222 98.3992,-746.216 89,-729 78.8572,-710.422 78.8572,-366.578 89,-348 96.7102,-333.877 111.192,-325.28 126.347,-320.051"/>
<polygon fill="black" stroke="black" points="127.752,-323.285 136.338,-317.077 125.755,-316.575 127.752,-323.285"/>
</g>
<!-- cluster_AsyncFIFO_WCtrl_io_mem_wctrl_wclk -->
<g id="node16" class="node"><title>cluster_AsyncFIFO_WCtrl_io_mem_wctrl_wclk</title>
<polygon fill="#e0ffff" stroke="black" points="244.5,-621 114.5,-621 114.5,-585 244.5,-585 244.5,-621"/>
<text text-anchor="middle" x="179.5" y="-599.3" font-family="Times,serif" font-size="14.00">io_mem_wctrl_wclk</text>
</g>
<!-- cluster_AsyncFIFO_mem_w_wctrl_wclk -->
<g id="node28" class="node"><title>cluster_AsyncFIFO_mem_w_wctrl_wclk</title>
<polygon fill="#cccccc" stroke="black" points="381.5,-594 287.5,-594 287.5,-558 381.5,-558 381.5,-594"/>
<text text-anchor="middle" x="334.5" y="-572.3" font-family="Times,serif" font-size="14.00">w_wctrl_wclk</text>
</g>
<!-- cluster_AsyncFIFO_WCtrl_io_mem_wctrl_wclk&#45;&gt;cluster_AsyncFIFO_mem_w_wctrl_wclk -->
<g id="edge13" class="edge"><title>cluster_AsyncFIFO_WCtrl_io_mem_wctrl_wclk&#45;&gt;cluster_AsyncFIFO_mem_w_wctrl_wclk</title>
<path fill="none" stroke="black" d="M244.942,-591.628C255.711,-589.727 266.807,-587.769 277.347,-585.909"/>
<polygon fill="black" stroke="black" points="278.013,-589.346 287.253,-584.161 276.797,-582.452 278.013,-589.346"/>
</g>
<!-- cluster_AsyncFIFO_WCtrl_io_mem_wctrl_we -->
<g id="node17" class="node"><title>cluster_AsyncFIFO_WCtrl_io_mem_wctrl_we</title>
<polygon fill="#e0ffff" stroke="black" points="239,-729 120,-729 120,-693 239,-693 239,-729"/>
<text text-anchor="middle" x="179.5" y="-707.3" font-family="Times,serif" font-size="14.00">io_mem_wctrl_we</text>
</g>
<!-- cluster_AsyncFIFO_mem_w_wctrl_we -->
<g id="node29" class="node"><title>cluster_AsyncFIFO_mem_w_wctrl_we</title>
<polygon fill="#cccccc" stroke="black" points="376,-702 293,-702 293,-666 376,-666 376,-702"/>
<text text-anchor="middle" x="334.5" y="-680.3" font-family="Times,serif" font-size="14.00">w_wctrl_we</text>
</g>
<!-- cluster_AsyncFIFO_WCtrl_io_mem_wctrl_we&#45;&gt;cluster_AsyncFIFO_mem_w_wctrl_we -->
<g id="edge14" class="edge"><title>cluster_AsyncFIFO_WCtrl_io_mem_wctrl_we&#45;&gt;cluster_AsyncFIFO_mem_w_wctrl_we</title>
<path fill="none" stroke="black" d="M239.216,-700.638C253.592,-698.101 268.856,-695.408 282.819,-692.944"/>
<polygon fill="black" stroke="black" points="283.485,-696.38 292.725,-691.196 282.269,-689.487 283.485,-696.38"/>
</g>
<!-- cluster_AsyncFIFO_WCtrl_io_mem_wctrl_waddr -->
<g id="node18" class="node"><title>cluster_AsyncFIFO_WCtrl_io_mem_wctrl_waddr</title>
<polygon fill="#e0ffff" stroke="black" points="248,-675 111,-675 111,-639 248,-639 248,-675"/>
<text text-anchor="middle" x="179.5" y="-653.3" font-family="Times,serif" font-size="14.00">io_mem_wctrl_waddr</text>
</g>
<!-- cluster_AsyncFIFO_mem_w_wctrl_waddr -->
<g id="node30" class="node"><title>cluster_AsyncFIFO_mem_w_wctrl_waddr</title>
<polygon fill="#cccccc" stroke="black" points="385,-648 284,-648 284,-612 385,-612 385,-648"/>
<text text-anchor="middle" x="334.5" y="-626.3" font-family="Times,serif" font-size="14.00">w_wctrl_waddr</text>
</g>
<!-- cluster_AsyncFIFO_WCtrl_io_mem_wctrl_waddr&#45;&gt;cluster_AsyncFIFO_mem_w_wctrl_waddr -->
<g id="edge7" class="edge"><title>cluster_AsyncFIFO_WCtrl_io_mem_wctrl_waddr&#45;&gt;cluster_AsyncFIFO_mem_w_wctrl_waddr</title>
<path fill="none" stroke="black" d="M248.053,-645.079C256.59,-643.572 265.278,-642.039 273.683,-640.556"/>
<polygon fill="black" stroke="black" points="274.526,-643.961 283.766,-638.777 273.31,-637.068 274.526,-643.961"/>
</g>
<!-- cluster_AsyncFIFO_WCtrl_io_wfull -->
<g id="node19" class="node"><title>cluster_AsyncFIFO_WCtrl_io_wfull</title>
<polygon fill="#e0ffff" stroke="black" points="210.5,-837 148.5,-837 148.5,-801 210.5,-801 210.5,-837"/>
<text text-anchor="middle" x="179.5" y="-815.3" font-family="Times,serif" font-size="14.00">io_wfull</text>
</g>
<!-- cluster_AsyncFIFO_WCtrl_io_wfull&#45;&gt;cluster_AsyncFIFO_w_wfull -->
<g id="edge9" class="edge"><title>cluster_AsyncFIFO_WCtrl_io_wfull&#45;&gt;cluster_AsyncFIFO_w_wfull</title>
<path fill="none" stroke="black" d="M210.728,-819C234.303,-819 267.269,-819 293.105,-819"/>
<polygon fill="black" stroke="black" points="293.335,-822.5 303.335,-819 293.335,-815.5 293.335,-822.5"/>
</g>
<!-- cluster_AsyncFIFO_RCtrl_io_ptrs_rptr -->
<g id="node24" class="node"><title>cluster_AsyncFIFO_RCtrl_io_ptrs_rptr</title>
<polygon fill="#e0ffff" stroke="black" points="219.5,-222 139.5,-222 139.5,-186 219.5,-186 219.5,-222"/>
<text text-anchor="middle" x="179.5" y="-200.3" font-family="Times,serif" font-size="14.00">io_ptrs_rptr</text>
</g>
<!-- cluster_AsyncFIFO_RCtrl_io_ptrs_rptr&#45;&gt;cluster_AsyncFIFO_WCtrl_io_ptrs_rptr -->
<g id="edge4" class="edge"><title>cluster_AsyncFIFO_RCtrl_io_ptrs_rptr&#45;&gt;cluster_AsyncFIFO_WCtrl_io_ptrs_rptr</title>
<path fill="none" stroke="black" d="M139.196,-208.382C119.902,-212.869 98.8853,-221.893 89,-240 74.1984,-267.112 74.1984,-490.888 89,-518 97.0404,-532.727 112.83,-540.659 129,-544.864"/>
<polygon fill="black" stroke="black" points="128.539,-548.345 139.051,-547.029 130.012,-541.502 128.539,-548.345"/>
</g>
<!-- cluster_AsyncFIFO_RCtrl_io_mem_rctrl_rclk -->
<g id="node25" class="node"><title>cluster_AsyncFIFO_RCtrl_io_mem_rctrl_rclk</title>
<polygon fill="#e0ffff" stroke="black" points="239,-168 120,-168 120,-132 239,-132 239,-168"/>
<text text-anchor="middle" x="179.5" y="-146.3" font-family="Times,serif" font-size="14.00">io_mem_rctrl_rclk</text>
</g>
<!-- cluster_AsyncFIFO_mem_r_rctrl_rclk -->
<g id="node32" class="node"><title>cluster_AsyncFIFO_mem_r_rctrl_rclk</title>
<polygon fill="#cccccc" stroke="black" points="373.5,-486 295.5,-486 295.5,-450 373.5,-450 373.5,-486"/>
<text text-anchor="middle" x="334.5" y="-464.3" font-family="Times,serif" font-size="14.00">r_rctrl_rclk</text>
</g>
<!-- cluster_AsyncFIFO_RCtrl_io_mem_rctrl_rclk&#45;&gt;cluster_AsyncFIFO_mem_r_rctrl_rclk -->
<g id="edge17" class="edge"><title>cluster_AsyncFIFO_RCtrl_io_mem_rctrl_rclk&#45;&gt;cluster_AsyncFIFO_mem_r_rctrl_rclk</title>
<path fill="none" stroke="black" d="M239.192,-162.94C245.669,-166.538 251.526,-171.133 256,-177 291.675,-223.785 242.6,-392.565 276,-441 278.825,-445.097 282.441,-448.588 286.481,-451.561"/>
<polygon fill="black" stroke="black" points="284.901,-454.698 295.251,-456.96 288.57,-448.737 284.901,-454.698"/>
</g>
<!-- cluster_AsyncFIFO_RCtrl_io_mem_rctrl_raddr -->
<g id="node26" class="node"><title>cluster_AsyncFIFO_RCtrl_io_mem_rctrl_raddr</title>
<polygon fill="#e0ffff" stroke="black" points="243,-114 116,-114 116,-78 243,-78 243,-114"/>
<text text-anchor="middle" x="179.5" y="-92.3" font-family="Times,serif" font-size="14.00">io_mem_rctrl_raddr</text>
</g>
<!-- cluster_AsyncFIFO_mem_r_rctrl_raddr -->
<g id="node33" class="node"><title>cluster_AsyncFIFO_mem_r_rctrl_raddr</title>
<polygon fill="#cccccc" stroke="black" points="377.5,-432 291.5,-432 291.5,-396 377.5,-396 377.5,-432"/>
<text text-anchor="middle" x="334.5" y="-410.3" font-family="Times,serif" font-size="14.00">r_rctrl_raddr</text>
</g>
<!-- cluster_AsyncFIFO_RCtrl_io_mem_rctrl_raddr&#45;&gt;cluster_AsyncFIFO_mem_r_rctrl_raddr -->
<g id="edge15" class="edge"><title>cluster_AsyncFIFO_RCtrl_io_mem_rctrl_raddr&#45;&gt;cluster_AsyncFIFO_mem_r_rctrl_raddr</title>
<path fill="none" stroke="black" d="M243.138,-111.312C248.041,-114.5 252.455,-118.351 256,-123 291.675,-169.785 242.6,-338.565 276,-387 277.972,-389.86 280.33,-392.425 282.948,-394.724"/>
<polygon fill="black" stroke="black" points="281.298,-397.85 291.458,-400.854 285.389,-392.169 281.298,-397.85"/>
</g>
<!-- cluster_AsyncFIFO_RCtrl_io_rempty -->
<g id="node27" class="node"><title>cluster_AsyncFIFO_RCtrl_io_rempty</title>
<polygon fill="#e0ffff" stroke="black" points="216,-60 143,-60 143,-24 216,-24 216,-60"/>
<text text-anchor="middle" x="179.5" y="-38.3" font-family="Times,serif" font-size="14.00">io_rempty</text>
</g>
<!-- cluster_AsyncFIFO_RCtrl_io_rempty&#45;&gt;cluster_AsyncFIFO_r_rempty -->
<g id="edge6" class="edge"><title>cluster_AsyncFIFO_RCtrl_io_rempty&#45;&gt;cluster_AsyncFIFO_r_rempty</title>
<path fill="none" stroke="black" d="M216.372,-42C238.684,-42 267.492,-42 290.955,-42"/>
<polygon fill="black" stroke="black" points="290.981,-45.5001 300.981,-42 290.981,-38.5001 290.981,-45.5001"/>
</g>
<!-- cluster_AsyncFIFO_mem_r_rbits -->
<g id="node34" class="node"><title>cluster_AsyncFIFO_mem_r_rbits</title>
<polygon fill="#e0ffff" stroke="black" points="361.5,-378 307.5,-378 307.5,-342 361.5,-342 361.5,-378"/>
<text text-anchor="middle" x="334.5" y="-356.3" font-family="Times,serif" font-size="14.00">r_rbits</text>
</g>
<!-- cluster_AsyncFIFO_mem_r_rbits&#45;&gt;cluster_AsyncFIFO_r_rbits -->
<g id="edge11" class="edge"><title>cluster_AsyncFIFO_mem_r_rbits&#45;&gt;cluster_AsyncFIFO_r_rbits</title>
<path fill="none" stroke="black" d="M361.642,-360C376.215,-360 394.591,-360 410.556,-360"/>
<polygon fill="black" stroke="black" points="410.636,-363.5 420.636,-360 410.636,-356.5 410.636,-363.5"/>
</g>
</g>
</svg>
